<?xml version="1.0" encoding="UTF-8"?><svg xmlns="http://www.w3.org/2000/svg" width="719" height="721" viewBox="0 0 719 721"><title>gsa-logo</title><path fill="#FFF" d="M719 0v720.338H0V0h719zM373.04 362.304c-41.71 0-75.36 22.069-75.36 64.38 0 37.873 26.011 51.66 53.146 64.713l1.79.86 1.793.859 1.792.86c.896.43 1.792.861 2.685 1.295l1.92.934c1.598.78 3.188 1.57 4.767 2.37l.857.436c14.009 7.16 28.191 16.239 28.191 34.315 0 23.95-20.669 33.551-41.354 33.872-15.835.243-34.746-6.267-49.336-12.273l-3.91 36.382c17.24 5.625 33.063 9.735 49.313 10.26 45.774 1.466 85.459-19.635 85.459-70.176 0-44.922-32.333-59.201-64.889-75.293l-2.014-.998-1.006-.501c-12.378-6.178-29.027-14.602-29.027-30.824 0-20.758 18.496-27.08 36.488-27.08 16.25 0 24.895 2.755 44.679 10.515l5.448-35.83c-18.17-6.438-36.272-9.076-51.432-9.076zm-198.66-.005c-70.304 0-122.157 47.416-122.157 118.666 0 73.429 48.85 120.602 121.83 120.602 35.564 0 57.854-5.88 72.411-10.863V470.39h-82.4v33.755h43.479v59.9c-8.23 2.163-19.685 3.147-33.164 3.147-45.21 0-81.741-32.688-81.98-85.265-.237-48.86 33.325-85.242 83.601-85.242 28.628 0 45.155 5.071 64.568 17.76l3.175-39.912c-21.095-7.279-35.979-12.234-69.364-12.234zm333.913 119.905L456.69 597.513h39.585l96.138-47.046-28.108-21.648-48.827 25.602 20.32-46.454-27.505-25.763zm112.157-.022l-27.517 25.774 38.568 89.546h40.547l-51.598-115.32zm-56.067-124.955l-55.46 123.511h38.618l16.842-41.045 16.808 41.045h38.623l-55.431-123.511z"/></svg>